# xmcd
#
# Track frame offsets: 
#        182
#        19660
#        43515
#        82055
#        105257
#        125470
#        147987
#        170760
#        192690
#        205552
#        251335
#        266477
#        281825
#        302337
#        325780
#
# Disc length: 4675 seconds
#
# Revision: 1
# Processed by: cddbd v1.5.2PL0 Copyright (c) Steve Scherf et al.
# Submitted via: ExactAudioCopy v0.99pb4
#
DISCID=cf12410f
DTITLE=B.B. King - Lucille and Friends
DYEAR=1995
DGENRE=Blues
TTITLE0=When Love Comes to Town with U2
TTITLE1=Playin' With My Friends with Robert Cray
TTITLE2=To Know You Is To Love You with Stevie Wonder
TTITLE3=Caught A Touch Of Your Love with Grover Washington Jr
TTITLE4=All You Ever Give Me Is The Blues with Vernon Reid
TTITLE5=You Shook Me with John Lee Hooker
TTITLE6=Spirit In The Dark with Dianne Schuur
TTITLE7=Can't Get Enpugh with Mick Fleetwood and Stevie Nicks
TTITLE8=Since I Met You Baby with Gary Moore
TTITLE9=BB's Blues with Brandford Marsalis
TTITLE10=Better Not Look Down with The Crusaders
TTITLE11=Frosty with Albert Collins
TTITLE12=Hummingbird with Leon Russel and Joe Walsh
TTITLE13=Ghetto Woman with Gary Wright, Mac Rebennack and Ringo Starr
TTITLE14=Let The Good Times Roll with Bobby Bland
EXTD=
EXTT0=with U2\n
EXTT1=with Robert Clay\n
EXTT2=with Stevie Wonder\n
EXTT3=with Grover Washington\n
EXTT4=with Vernon Reid\n
EXTT5=with John Lee Hooker\n
EXTT6=with Dianne Schuur\n
EXTT7=with Mick Fleetwood and Stevie Nicks\n
EXTT8=with Gary Moore\n
EXTT9=with Branford Marsalis\n
EXTT10=with The Crusaders\n
EXTT11=with Albert Collins\n
EXTT12=with Leon Russell and Joe Walsh\n
EXTT13=with Gary Wright, Mac Rebennack, and Ringo Starr\n
EXTT14=with Bobby Bland\n
PLAYORDER=
